<?xml version="1.0" ?><svg height="256" viewBox="0 0 256 256" width="256" xmlns="http://www.w3.org/2000/svg"><title/><g id="calculator-calories-daily"><g><path d="M230,224.91H216.04a38.383,38.383,0,0,0,7.63-7.73c14.73-20.25,5.65-37.45,3.92-40.35l-1.41-9.45a2.02,2.02,0,0,0-2.08-1.7l-12.79.65a1.976,1.976,0,0,0-1.66,1.06c-.84-1.01-1.7-1.96-2.56-2.83a21.717,21.717,0,0,1-5.23-9.17l-2.14-7.65-.09-.24a13.87,13.87,0,0,0-7.63-7.49V34A26.025,26.025,0,0,0,166,8H50A26.025,26.025,0,0,0,24,34V194a26.025,26.025,0,0,0,26,26h78.29a39.669,39.669,0,0,0,4.35,4.91H130a2.023,2.023,0,0,0-2,2.02A21.091,21.091,0,0,0,149.07,248h61.86A21.1,21.1,0,0,0,232,226.91,2,2,0,0,0,230,224.91Zm-34.1-75.96,2.11,7.53a25.611,25.611,0,0,0,6.22,10.87,48.683,48.683,0,0,1,5.04,6.11l-.28,10.42a54.385,54.385,0,0,1-9.06,11.9c-1.71-5.58-4.94-10.67-8.72-13.53a11.99,11.99,0,0,0-7.32-2.68c-9.59,0-17.31,13.12-17.31,23.98a20.293,20.293,0,0,0,.92,6.14c-.38.04-.77.06-1.16.08a72.35,72.35,0,0,1-9.62-.16,81.013,81.013,0,0,1-13.71-2.37,54.713,54.713,0,0,1,8.65-27.66c0-.01.01-.02.02-.03a54.217,54.217,0,0,1,10.56-12.02,25.762,25.762,0,0,0,7.78-11.49l2.57-7.64a9.7,9.7,0,0,1,2.53-3.14l.15-.12a9.976,9.976,0,0,1,6.16-2.14h5.37a9.6,9.6,0,0,1,2.61.35c.02.01.04.01.06.02A9.84,9.84,0,0,1,195.9,148.95Zm-24.33,60.34a16.733,16.733,0,0,1-.99-5.74c0-8.81,6.27-19.98,13.31-19.98a8.171,8.171,0,0,1,4.9,1.86c3.5,2.65,6.55,7.91,7.81,13.34-.84.7-1.72,1.36-2.61,1.99A49.967,49.967,0,0,1,171.57,209.29ZM132,82H120a4,4,0,0,1,0-8h12a4,4,0,0,1,0,8Zm-16,24a8.011,8.011,0,0,1,8-8h4a8.011,8.011,0,0,1,8,8v4a8.011,8.011,0,0,1-8,8h-4a8.011,8.011,0,0,1-8-8Zm0,38a8.011,8.011,0,0,1,8-8h4a8.011,8.011,0,0,1,8,8v4a8.011,8.011,0,0,1-8,8h-4a8.011,8.011,0,0,1-8-8Zm0,38a8.011,8.011,0,0,1,8-8h4a8.011,8.011,0,0,1,8,8v4a8.011,8.011,0,0,1-8,8h-4a8.011,8.011,0,0,1-8-8Zm36-66V74h20v42Zm0,20h20v6.69a13.385,13.385,0,0,0-3.05,4.06,1.013,1.013,0,0,0-.1.24l-2.63,7.77a21.639,21.639,0,0,1-6.56,9.71,57.024,57.024,0,0,0-7.66,7.84ZM176,30V60a2.006,2.006,0,0,1-2,2H42a2.006,2.006,0,0,1-2-2V30a2.006,2.006,0,0,1,2-2H174A2.006,2.006,0,0,1,176,30ZM80,182a8.011,8.011,0,0,1,8-8h4a8.011,8.011,0,0,1,8,8v4a8.011,8.011,0,0,1-8,8H88a8.011,8.011,0,0,1-8-8Zm20-34a8.011,8.011,0,0,1-8,8H88a8.011,8.011,0,0,1-8-8v-4a8.011,8.011,0,0,1,8-8h4a8.011,8.011,0,0,1,8,8Zm0-38a8.011,8.011,0,0,1-8,8H88a8.011,8.011,0,0,1-8-8v-4a8.011,8.011,0,0,1,8-8h4a8.011,8.011,0,0,1,8,8ZM96,82H84a4,4,0,0,1,0-8H96a4,4,0,0,1,0,8ZM64,148a8.011,8.011,0,0,1-8,8H52a8.011,8.011,0,0,1-8-8v-4a8.011,8.011,0,0,1,8-8h4a8.011,8.011,0,0,1,8,8Zm0-38a8.011,8.011,0,0,1-8,8H52a8.011,8.011,0,0,1-8-8v-4a8.011,8.011,0,0,1,8-8h4a8.011,8.011,0,0,1,8,8ZM60,82H48a4,4,0,0,1,0-8H60a4,4,0,0,1,0,8ZM44,182a8.011,8.011,0,0,1,8-8h4a8.011,8.011,0,0,1,8,8v4a8.011,8.011,0,0,1-8,8H52a8.011,8.011,0,0,1-8-8Zm86.96,34.88a1.43,1.43,0,0,0-.11-.15c-.09-.13-.19-.26-.28-.4-.03-.04-.07-.09-.11-.14l-4.6-5.52,2.56-3.98,7.94,2.7.43.14c.12.05,1.33.5,3.39,1.1a85.046,85.046,0,0,0,16.21,2.96,73.671,73.671,0,0,0,10.15.17c1.27-.06,2.53-.16,3.76-.3h.06a1.634,1.634,0,0,0,.22-.02,54.169,54.169,0,0,0,25.72-9.42c1.28-.9,2.53-1.87,3.73-2.9a.709.709,0,0,0,.13-.12c.61-.51,1.22-1.06,1.8-1.61a58.768,58.768,0,0,0,10.76-13.98,2,2,0,0,0,.26-.93l.3-11.38c0-.08.01-.16.01-.24l.07-2.63,9.13-.46,1.2,8.06a1.934,1.934,0,0,0,.33.83c.44.66,10.79,16.41-3.58,36.17a39.063,39.063,0,0,1-11.46,10.08H138.77A37.151,37.151,0,0,1,130.96,216.88Z"/><path d="M158,56h6a4,4,0,0,0,4-4V38a4,4,0,0,0-4-4h-6a4,4,0,0,0-4,4V52A4,4,0,0,0,158,56Zm0-18h6V52h-6Z"/><circle cx="151" cy="55" r="1"/><path d="M138,56h6a4,4,0,0,0,4-4V38a4,4,0,0,0-4-4h-6a4,4,0,0,0-4,4V52A4,4,0,0,0,138,56Zm0-18h6V52h-6Z"/><path d="M122,56h6a4,4,0,0,0,4-4V38a4,4,0,0,0-4-4h-6a4,4,0,0,0-4,4V52A4,4,0,0,0,122,56Zm0-18h6V52h-6Z"/><path d="M114,56a2.006,2.006,0,0,0,2-2V36a2,2,0,0,0-4,0V54A2.006,2.006,0,0,0,114,56Z"/></g></g></svg>